<?xml version="1.0" encoding="utf-8"?>
<!-- Svg Vector Icons : http://www.onlinewebfonts.com/icon -->
<!DOCTYPE svg PUBLIC "-//W3C//DTD SVG 1.1//EN" "http://www.w3.org/Graphics/SVG/1.1/DTD/svg11.dtd">
<svg version="1.1" xmlns="http://www.w3.org/2000/svg" xmlns:xlink="http://www.w3.org/1999/xlink" x="0px" y="0px" viewBox="0 0 1000 1000" enable-background="new 0 0 1000 1000" xml:space="preserve">
<metadata> Svg Vector Icons : http://www.onlinewebfonts.com/icon </metadata>
<g><path d="M500,10C229.4,10,10,229.4,10,500s219.4,490,490,490s490-219.4,490-490S770.6,10,500,10z M832.6,832.6c-43.2,43.2-93.5,77.1-149.5,100.8c-58,24.5-119.6,37-183.1,37c-63.5,0-125.1-12.4-183.1-37c-56-23.7-106.3-57.6-149.5-100.8c-43.2-43.2-77.1-93.5-100.8-149.5c-24.5-58-37-119.6-37-183.1c0-63.5,12.4-125.1,37-183.1c23.7-56,57.6-106.3,100.8-149.5c43.2-43.2,93.5-77.1,149.5-100.8c58-24.5,119.6-37,183.1-37c63.5,0,125.1,12.4,183.1,37c56,23.7,106.3,57.6,149.5,100.8c43.2,43.2,77.1,93.5,100.8,149.5c24.5,58,37,119.6,37,183.1c0,63.5-12.4,125.1-37,183.1C909.8,739.1,875.8,789.4,832.6,832.6z"/><path d="M664.8,216.4c-4.7,0-8.5,3.8-8.5,8.5v91.6c-23.6-43.2-69.4-72.5-122.1-72.5H526v-29.2h-53.2v29.2h-8.2c-76.8,0-139.1,62.3-139.1,139.1v228.7c0,43,19.5,81.3,50.1,106.9v38H347v25.5h54.2v-46.6c19,9.8,40.6,15.3,63.5,15.3h8.2v16.1h-30.6v15.2h114.3v-15.2H526v-16.1h8.2c22.9,0,44.4-5.5,63.5-15.3v46.6h54.2v-25.5h-28.6v-38c30.6-25.5,50.1-63.9,50.1-106.9V224.8C673.3,220.2,669.5,216.4,664.8,216.4L664.8,216.4z"/></g>
</svg>